<svg width="266" height="73" xmlns="http://www.w3.org/2000/svg">
 <defs>
  <filter id="svg_7_blur">
   <feGaussianBlur stdDeviation="0" in="SourceGraphic"/>
  </filter>
 </defs>
 <g>
  <title>background</title>
  <rect fill="none" id="canvas_background" height="402" width="582" y="-1" x="-1"/>
 </g>
 <g>
  <title>Layer 1</title>
  <path id="svg_3" fill="white" d="m36.0678,0c-7.1335,0 -14.1069,2.11534 -20.0382,6.07852c-5.9313,3.96318 -10.55421,9.59618 -13.2841,16.18668c-2.72989,6.5906 -3.44415,13.8426 -2.05247,20.8391c1.39168,6.9964 4.82681,13.4231 9.87097,18.4673c5.0442,5.0441 11.4708,8.4793 18.4673,9.871c6.9965,1.3916 14.2485,0.6774 20.839,-2.0525c6.5906,-2.7299 12.2236,-7.3528 16.1868,-13.2841c3.9631,-5.9313 6.0785,-12.9047 6.0785,-20.0382l-18.0339,0c0,3.5668 -1.0577,7.0534 -3.0393,10.0191c-1.9816,2.9657 -4.7981,5.2771 -8.0933,6.642c-3.2953,1.365 -6.9213,1.7221 -10.4195,1.0263c-3.4983,-0.6959 -6.7116,-2.4134 -9.2337,-4.9355c-2.5221,-2.5221 -4.2396,-5.7354 -4.9355,-9.2337c-0.6958,-3.4982 -0.3387,-7.1242 1.0262,-10.4195c1.365,-3.2952 3.6764,-6.1118 6.6421,-8.0933c2.9657,-1.9816 6.4523,-3.0393 10.0191,-3.0393l0,-18.0339z"/>
  <path id="svg_4" fill="#5CE1E6" d="m36.0678,0c-4.7365,0 -9.4266,0.93292 -13.8026,2.7455c-4.3759,1.81257 -8.352,4.46931 -11.7012,7.8185c-3.34919,3.3492 -6.00593,7.3253 -7.8185,11.7013c-1.81258,4.3759 -2.7455,9.066 -2.7455,13.8025l18.0339,0c0,-2.3682 0.4665,-4.7133 1.3727,-6.9013c0.9063,-2.188 2.2347,-4.176 3.9093,-5.8506c1.6746,-1.6746 3.6626,-3.003 5.8506,-3.9093c2.188,-0.9062 4.533,-1.3727 6.9013,-1.3727l0,-18.0339z"/>
  <circle id="svg_5" fill="#5CE1E6" r="11.2712" cy="36.0678" cx="36.0678"/>
  <path id="svg_6" fill="white" d="m47.339,36.0678c0,-1.4801 -0.2915,-2.9458 -0.858,-4.3133c-0.5664,-1.3675 -1.3966,-2.61 -2.4433,-3.6566c-1.0466,-1.0466 -2.2891,-1.8769 -3.6566,-2.4433c-1.3675,-0.5664 -2.8331,-0.858 -4.3133,-0.858c-1.4802,0 -2.9458,0.2916 -4.3133,0.858c-1.3675,0.5664 -2.61,1.3967 -3.6566,2.4433c-1.0467,1.0466 -1.8769,2.2891 -2.4433,3.6566c-0.5664,1.3675 -0.858,2.8332 -0.858,4.3133l11.2712,0l11.2712,0z"/>
  <text filter="url(#svg_7_blur)" font-style="normal" font-weight="bold" stroke="null" transform="matrix(1.0687108039855957,0,0,1.1831026077270508,-5.398704829218332,-2.8933486499881838) " xml:space="preserve" text-anchor="start" font-family="Helvetica, Arial, sans-serif" font-size="29" id="svg_7" y="49.757455" x="71.887798" stroke-opacity="null" stroke-width="0" fill="#ffffff">Gud_V</text>
  <text font-weight="bold" xml:space="preserve" text-anchor="start" font-family="Helvetica, Arial, sans-serif" font-size="32" id="svg_8" y="56.467211" x="163.392833" stroke-width="0" fill="#5CE1E6">Shop</text>
 </g>
</svg>